<svg id="Layer_1" data-name="Layer 1" xmlns="http://www.w3.org/2000/svg" xmlns:xlink="http://www.w3.org/1999/xlink" viewBox="0 0 1150.04 962.44"><defs><style>.cls-1,.cls-10{fill:none;}.cls-2{fill:#fff;}.cls-3{clip-path:url(#clip-path);}.cls-4{fill:#ff822d;}.cls-5{clip-path:url(#clip-path-2);}.cls-6{fill:url(#radial-gradient);}.cls-7{clip-path:url(#clip-path-3);}.cls-8{fill:#3b346b;stroke-miterlimit:10;stroke-width:3.27px;}.cls-10,.cls-8,.cls-9{stroke:#3b346b;}.cls-9{fill:#657ff0;}.cls-10,.cls-9{stroke-linejoin:round;stroke-width:5px;}.cls-11{clip-path:url(#clip-path-4);}</style><clipPath id="clip-path" transform="translate(-385.01 -102.69)"><path class="cls-1" d="M1175.54,763c48.8,52.12,100.89,64.19,132.81,60.87,74.21-7.73,22.3-66.42-31.86-142.58-45-63.3-101.23-89.87-132.82-60.88C1117.23,644.69,1126.18,710.31,1175.54,763Z"/></clipPath><clipPath id="clip-path-2" transform="translate(-385.01 -102.69)"><path class="cls-1" d="M1015.15,928.05c-36.54,11.25-75.36,10.51-116,0-41.24-70.95-77.86-140.83-79.36-202.55,2.6-54.45,29-115.8,63.76-179.54H1036.6c34.37,51.94,58.06,110.91,64,181.59C1097.28,803.81,1055.59,867.12,1015.15,928.05Z"/></clipPath><radialGradient id="radial-gradient" cx="959.31" cy="431.61" r="324.26" gradientTransform="translate(2254.13 -527.7) rotate(90) scale(1 3)" gradientUnits="userSpaceOnUse"><stop offset="0"/><stop offset="0.27" stop-color="#020202"/><stop offset="0.37" stop-color="#0b0b0b" stop-opacity="0.99"/><stop offset="0.44" stop-color="#1a1a1a" stop-opacity="0.98"/><stop offset="0.5" stop-color="#2f2f2f" stop-opacity="0.96"/><stop offset="0.55" stop-color="#4a4a4a" stop-opacity="0.94"/><stop offset="0.59" stop-color="#6c6c6c" stop-opacity="0.92"/><stop offset="0.63" stop-color="#959595" stop-opacity="0.88"/><stop offset="0.66" stop-color="#c4c4c4" stop-opacity="0.85"/><stop offset="0.7" stop-color="#f7f7f7" stop-opacity="0.81"/><stop offset="0.7" stop-color="#fff" stop-opacity="0.8"/></radialGradient><clipPath id="clip-path-3" transform="translate(-385.01 -102.69)"><path class="cls-1" d="M1352.47,397.43c.19,15.29-.27,30.62-.87,45.74-1.32,33.34-3.31,69.43-19.77,99.31-20.55,37.31-59,52.9-97.76,64.27-169.84,49.78-352.44,46-525.38,8.32-31.86-6.93-64.73-16-91-36.13-31.67-24.24-43.56-60-46.92-98.67-5.15-59.1-5.26-124.47,15.14-180.86,9-24.74,22-48.07,42-65.4,21.59-18.69,46.13-33.79,72-45.71A385.92,385.92,0,0,1,753,168.58c51.11-14.93,104.51-20.38,157.7-23,87.51-4.31,176.54-.93,260.43,24.39,64,19.32,127.68,54.78,158.24,114.26C1347.17,318.91,1352,358,1352.47,397.43Z"/></clipPath><clipPath id="clip-path-4" transform="translate(-385.01 -102.69)"><path class="cls-1" d="M744.51,763.43c-48.8,52.12-100.89,64.19-132.82,60.87-74.2-7.73-22.29-66.42,31.87-142.58,45-63.3,101.23-89.87,132.82-60.88C802.82,645.1,793.87,710.72,744.51,763.43Z"/></clipPath></defs><path class="cls-2" d="M1175.54,763c48.8,52.12,100.89,64.19,132.81,60.87,74.21-7.73,22.3-66.42-31.86-142.58-45-63.3-101.23-89.87-132.82-60.88C1117.23,644.69,1126.18,710.31,1175.54,763Z" transform="translate(-385.01 -102.69)"/><g class="cls-3"><circle class="cls-4" cx="989.61" cy="801.6" r="160.43"/></g><path class="cls-2" d="M744.51,763.43c-48.8,52.12-100.89,64.19-132.82,60.87-74.2-7.73-22.29-66.42,31.87-142.58,45-63.3,101.23-89.87,132.82-60.88C802.82,645.1,793.87,710.72,744.51,763.43Z" transform="translate(-385.01 -102.69)"/><circle class="cls-4" cx="575.23" cy="598.75" r="234.77"/><path class="cls-2" d="M1015.15,928.05c-36.54,11.25-75.36,10.51-116,0-41.24-70.95-77.86-140.83-79.36-202.55,2.6-54.45,29-115.8,63.76-179.54H1036.6c34.37,51.94,58.06,110.91,64,181.59C1097.28,803.81,1055.59,867.12,1015.15,928.05Z" transform="translate(-385.01 -102.69)"/><g class="cls-5"><path class="cls-6" d="M1317.39,606.14c-18.17,20.47-46,27.38-71.18,35.1A898.53,898.53,0,0,1,1157,663.72c-76.87,15.24-155.81,19.92-234,16.89-72.07-2.79-143.83-12.48-214.29-27.81-26.2-5.69-52.95-11.55-77.15-23.46-28.62-14.08-44.26-28.81-48.95-60C571.38,495,572.09,411,585.88,337.14c4.83-25.86,22-48.07,42-65.4C649.43,253.05,674,238,699.88,226A385.79,385.79,0,0,1,753,206.31c51.11-14.93,104.52-20.38,157.7-23,87.52-4.31,176.54-.92,260.43,24.39,64,19.32,127.69,54.78,158.25,114.26,13.3,25.88,12.15,63.44,13.44,91.62,2,43.93,1.44,88.59-4.87,132.18-2.32,16-5.05,32.32-12,47.07A54.24,54.24,0,0,1,1317.39,606.14Z" transform="translate(-385.01 -102.69)"/></g><path class="cls-2" d="M1317.4,568.41c-18.17,20.47-46,27.38-71.19,35.1A897.83,897.83,0,0,1,1157,626c-76.87,15.24-155.8,19.92-234,16.89-72.08-2.79-143.84-12.48-214.3-27.81-26.19-5.7-52.94-11.55-77.15-23.46-28.62-14.08-44.25-28.82-48.94-60-11.2-74.37-10.49-158.41,3.3-232.23,4.83-25.86,22-48.07,42-65.4,21.59-18.69,46.13-33.79,72-45.71A385.92,385.92,0,0,1,753,168.58c51.11-14.93,104.51-20.38,157.7-23,87.51-4.31,176.54-.93,260.43,24.39,64,19.32,127.68,54.78,158.25,114.26,13.29,25.88,12.15,63.44,13.43,91.62,2,43.93,1.45,88.59-4.86,132.18-2.32,16-5,32.32-12,47.07A54.24,54.24,0,0,1,1317.4,568.41Z" transform="translate(-385.01 -102.69)"/><g class="cls-7"><polygon class="cls-4" points="727.45 407.95 446.59 404.19 340.46 0 835.03 0 727.45 407.95"/></g><path class="cls-8" d="M1264.84,507.88c-4.25,9.81-12,15-26,23.12a340.27,340.27,0,0,1-36.61,18.39c-26.39,11.26-54.1,19.27-82.17,25.08C1064.34,586,1007.12,589,950.37,588.42c-57.83-.59-116.1-6.48-172.3-20.46-24.24-6-48.2-13.59-71.05-23.75-24.94-11.1-47.38-15.88-52.56-45.61-7.15-41-8.68-83.55-6.94-125,.52-12.51.19-31.58,6.37-42.82,5-9.17,14.8-11.67,24.31-15.73,18.87-8.08,38.77-13.77,58.72-18.48,51-12,103.53-17.62,155.76-20.46,105-5.7,218.08-3.81,319.33,27.55,18.71,5.79,54,12.56,58.16,35.31,8.71,48,3.09,101.21-1.19,149.53C1268.24,496.78,1267,502.92,1264.84,507.88Z" transform="translate(-385.01 -102.69)"/><path class="cls-4" d="M852.55,430.57c0,38.48-34.46,61-72.93,61s-72.94-22.48-72.94-61,34.46-63.14,72.94-63.14S852.55,392.09,852.55,430.57Z" transform="translate(-385.01 -102.69)"/><path class="cls-4" d="M1081.17,469.87a27.14,27.14,0,0,1-19.41-8.51c-16-16.74-5.24-40.34,11.83-51,12.67-7.91,29-14.8,43.76-17,17.74-2.69,35.71.79,51.94,8.15,12.59,5.7,28.85,13.62,35.12,26.82,6,12.7,2.48,29.47-9.22,37.68-9.12,6.39-21.39,6.25-31.08,1.2-10.51-5.48-15.95-17.48-27.63-21.28-16.3-5.3-26.44,9.24-37.78,18A28.15,28.15,0,0,1,1081.17,469.87Z" transform="translate(-385.01 -102.69)"/><polygon class="cls-9" points="574.65 736.43 498.14 700.77 574.9 602.22 651.17 699.75 574.65 736.43"/><polygon class="cls-9" points="574.82 809.12 498.14 719.83 574.77 757.39 652.82 719.83 574.82 809.12"/><line class="cls-9" x1="574.9" y1="602.22" x2="574.65" y2="736.43"/><polyline class="cls-10" points="498.14 700.77 574.65 669.33 651.17 699.75"/><line class="cls-9" x1="574.77" y1="757.39" x2="574.82" y2="809.12"/><g class="cls-11"><circle class="cls-4" cx="160.43" cy="802.01" r="160.43"/></g></svg>