<svg id="svg" version="1.1" xmlns="http://www.w3.org/2000/svg" xmlns:xlink="http://www.w3.org/1999/xlink" width="400" height="400" viewBox="0, 0, 400,400"><g id="svgg"><path id="path0" d="M183.455 20.227 C 182.255 20.299,178.000 20.599,174.000 20.894 C 170.000 21.190,165.173 21.530,163.273 21.650 C 161.373 21.771,157.609 22.178,154.909 22.554 C 152.209 22.931,148.609 23.346,146.909 23.475 C 145.209 23.605,141.282 24.178,138.182 24.749 C 135.082 25.320,130.091 26.207,127.091 26.721 C 124.091 27.236,119.100 28.246,116.000 28.966 C 112.900 29.687,109.300 30.503,108.000 30.781 C 102.479 31.961,101.547 34.567,103.923 42.182 C 104.516 44.082,105.932 48.664,107.070 52.364 C 108.207 56.064,110.121 62.200,111.323 66.000 C 112.525 69.800,113.683 73.482,113.897 74.182 C 115.211 78.488,117.007 78.842,129.632 77.284 C 140.513 75.941,146.925 75.255,152.182 74.868 C 154.782 74.677,160.591 74.206,165.091 73.821 C 179.186 72.615,226.308 72.592,234.182 73.786 C 235.482 73.983,239.571 74.322,243.269 74.540 C 246.968 74.757,251.549 75.161,253.451 75.438 C 255.353 75.714,258.464 76.048,260.364 76.179 C 262.264 76.310,265.455 76.650,267.455 76.936 C 281.393 78.927,282.744 78.768,284.732 74.894 C 285.308 73.770,288.604 63.578,292.546 50.727 C 293.221 48.527,294.314 45.009,294.976 42.909 C 296.552 37.909,296.656 34.384,295.273 32.905 C 293.927 31.466,293.766 31.411,285.376 29.477 C 278.611 27.917,275.704 27.334,267.091 25.806 C 266.091 25.629,263.391 25.148,261.091 24.737 C 258.791 24.326,254.455 23.742,251.455 23.438 C 248.455 23.134,244.527 22.649,242.727 22.361 C 240.927 22.072,235.445 21.581,230.545 21.270 C 225.645 20.958,220.982 20.613,220.182 20.502 C 218.499 20.269,186.710 20.031,183.455 20.227 M109.818 119.128 C 95.117 120.816,81.987 130.646,79.618 141.738 C 75.620 160.453,91.887 177.492,113.455 177.182 C 146.628 176.707,160.064 141.456,133.546 124.473 C 127.841 120.820,116.782 118.328,109.818 119.128 M276.182 130.412 C 262.688 132.506,251.645 139.579,246.790 149.238 C 242.842 157.093,248.841 165.275,258.545 165.271 C 263.453 165.269,265.143 164.392,270.231 159.210 C 278.679 150.604,285.199 150.568,293.344 159.081 C 300.342 166.396,307.054 167.566,313.534 162.599 C 329.199 150.591,301.265 126.519,276.182 130.412 M104.364 250.437 C 98.586 252.532,95.349 271.601,98.112 287.273 C 104.188 321.737,120.677 348.245,146.909 365.717 C 152.988 369.766,154.484 370.310,156.837 369.326 C 159.414 368.250,159.151 365.842,155.888 360.641 C 144.429 342.371,135.090 320.572,132.714 306.545 C 132.324 304.245,131.762 301.218,131.464 299.818 C 129.738 291.711,131.067 270.974,133.835 262.817 C 135.920 256.676,134.143 254.919,124.182 253.271 C 122.182 252.940,117.883 252.109,114.629 251.425 C 109.166 250.277,105.720 249.945,104.364 250.437 M290.152 250.332 C 289.919 250.562,281.824 252.229,275.960 253.254 C 264.927 255.183,263.743 256.253,265.651 262.563 C 269.774 276.194,269.784 295.788,265.677 311.818 C 261.856 326.733,251.916 348.600,243.120 361.444 C 238.879 367.637,241.263 371.591,247.372 368.495 C 265.750 359.183,284.389 337.200,293.580 314.000 C 303.339 289.364,304.787 268.612,297.773 253.906 C 296.393 251.014,291.690 248.809,290.152 250.332 M32.433 299.023 C 31.026 299.953,28.500 304.853,27.337 308.909 C 24.041 320.403,23.359 324.003,23.964 326.709 C 26.160 336.520,41.146 340.785,54.535 335.410 C 58.660 333.754,66.994 328.982,68.141 327.619 C 72.186 322.811,65.413 314.854,48.488 304.532 C 37.969 298.116,35.227 297.175,32.433 299.023 M358.727 299.878 C 345.530 306.678,331.018 318.090,329.796 322.629 C 328.779 326.404,330.390 328.140,339.273 332.840 C 350.362 338.708,359.313 339.475,367.644 335.269 C 375.295 331.407,376.617 326.880,373.541 315.071 C 369.305 298.808,366.462 295.893,358.727 299.878 " stroke="none" fill="#eb8b34" fill-rule="evenodd"></path><path id="path1" d="M76.632 39.894 C 76.080 39.979,72.774 41.492,69.286 43.256 C 46.257 54.900,29.658 75.806,26.831 96.727 C 26.129 101.916,26.156 185.584,26.860 189.455 C 28.913 200.741,37.649 209.260,54.211 216.123 C 61.351 219.081,85.770 227.517,89.091 228.172 C 89.791 228.310,92.327 228.996,94.727 229.697 C 106.171 233.039,130.798 238.299,137.273 238.784 C 138.673 238.889,141.009 239.208,142.464 239.492 C 143.919 239.777,147.274 240.262,149.919 240.570 C 152.563 240.878,155.382 241.284,156.182 241.473 C 157.602 241.807,169.046 242.568,183.273 243.272 C 192.226 243.716,208.181 243.714,216.000 243.268 C 219.300 243.080,225.436 242.754,229.636 242.543 C 233.836 242.333,239.645 241.847,242.545 241.465 C 245.445 241.082,248.882 240.665,250.182 240.539 C 251.482 240.412,254.077 239.994,255.949 239.609 C 257.821 239.224,260.045 238.909,260.892 238.909 C 264.170 238.909,286.949 234.322,297.636 231.510 C 321.382 225.262,346.101 216.529,355.273 211.149 C 364.131 205.953,371.041 196.826,372.357 188.585 C 373.026 184.399,372.867 98.466,372.185 95.163 C 367.997 74.889,353.105 55.817,332.872 44.814 C 319.756 37.682,317.479 38.119,314.357 48.364 C 313.717 50.464,312.081 55.782,310.722 60.182 C 303.286 84.256,302.556 81.832,318.545 86.178 C 340.469 92.136,346.738 95.476,348.813 102.305 C 349.739 105.354,349.454 184.883,348.510 186.909 C 347.385 189.320,344.610 192.189,341.869 193.776 C 333.232 198.775,309.724 207.809,295.818 211.472 C 283.116 214.818,268.169 218.172,263.455 218.733 C 262.455 218.852,259.755 219.258,257.455 219.634 C 255.155 220.011,251.718 220.503,249.818 220.728 C 247.918 220.954,244.809 221.365,242.909 221.641 C 241.009 221.918,236.264 222.331,232.364 222.558 C 228.464 222.786,224.045 223.131,222.545 223.326 C 219.068 223.779,188.303 224.023,181.818 223.650 C 154.335 222.069,128.003 218.251,109.919 213.226 C 107.363 212.516,103.227 211.385,100.727 210.714 C 92.835 208.595,74.953 202.168,66.737 198.497 C 57.430 194.338,52.861 191.099,51.022 187.354 L 50.000 185.273 50.000 143.818 L 50.000 102.364 50.827 100.686 C 53.649 94.957,60.957 91.395,80.588 86.178 C 95.238 82.285,95.351 82.119,91.481 70.239 C 90.396 66.908,89.156 62.873,88.727 61.273 C 88.297 59.673,87.403 56.727,86.739 54.727 C 86.075 52.727,85.025 49.439,84.404 47.420 C 82.515 41.273,80.479 39.301,76.632 39.894 M71.228 249.748 C 64.661 253.096,48.165 270.730,40.068 283.058 C 34.257 291.905,34.544 293.243,43.273 298.010 C 55.217 304.533,62.788 309.948,70.648 317.590 C 74.834 321.661,76.971 321.917,80.996 318.833 C 85.240 315.580,85.548 313.033,82.790 304.000 C 79.034 291.693,76.828 271.822,78.156 262.251 C 79.320 253.860,79.368 253.208,78.917 251.842 C 78.069 249.273,74.217 248.224,71.228 249.748 M321.243 249.443 C 318.704 250.471,317.831 253.290,318.932 256.909 C 320.671 262.625,320.716 263.046,320.722 273.797 C 320.728 286.217,319.645 293.328,315.593 307.455 C 313.919 313.290,314.227 315.349,317.177 318.060 C 321.980 322.472,323.483 322.155,331.260 315.087 C 336.160 310.633,342.125 306.055,346.400 303.467 C 348.630 302.117,357.143 297.246,359.618 295.905 C 362.653 294.260,363.787 291.117,362.350 288.337 C 356.749 277.505,338.264 256.563,328.944 250.490 C 326.714 249.037,323.371 248.583,321.243 249.443 M247.636 257.481 C 244.936 257.858,239.945 258.329,236.545 258.530 C 233.145 258.730,226.436 259.141,221.636 259.443 C 208.280 260.284,183.079 260.108,172.364 259.100 C 171.264 258.996,167.173 258.748,163.273 258.549 C 159.373 258.350,154.382 257.924,152.182 257.603 C 141.979 256.115,140.237 257.505,137.608 269.223 C 132.361 292.613,138.793 322.191,155.096 349.636 C 155.928 351.036,157.155 353.164,157.824 354.364 C 161.282 360.568,170.643 373.929,172.964 375.972 C 179.375 381.616,214.028 382.485,224.378 377.262 C 226.454 376.215,228.110 374.412,232.054 368.909 C 246.593 348.625,258.630 322.562,261.446 305.273 C 261.674 303.873,262.216 301.418,262.651 299.818 C 265.024 291.094,262.939 269.024,258.993 261.092 C 256.873 256.831,255.480 256.388,247.636 257.481 M202.279 269.000 C 203.418 269.865,207.337 274.867,211.630 280.937 C 212.327 281.921,213.095 282.973,213.338 283.273 C 213.801 283.847,219.311 291.300,220.192 292.545 C 221.715 294.697,234.251 311.631,236.614 314.727 C 241.269 320.829,241.124 321.009,225.636 328.393 C 222.636 329.823,217.727 332.181,214.727 333.634 C 198.885 341.304,200.303 341.004,194.000 338.011 C 179.443 331.100,165.054 324.168,163.443 323.290 C 159.389 321.080,159.485 318.572,163.818 313.581 C 164.018 313.351,165.082 311.905,166.182 310.368 C 167.282 308.832,168.591 307.042,169.091 306.392 C 169.591 305.741,170.283 304.814,170.629 304.332 C 171.816 302.676,180.389 291.091,180.831 290.545 C 181.074 290.245,181.570 289.539,181.933 288.976 C 182.296 288.413,182.822 287.676,183.100 287.340 C 183.379 287.003,185.241 284.518,187.239 281.818 C 189.236 279.118,191.015 276.741,191.192 276.536 C 191.368 276.331,191.823 275.676,192.203 275.081 C 192.582 274.487,192.978 273.918,193.083 273.818 C 193.189 273.718,193.984 272.702,194.852 271.561 C 197.627 267.908,199.836 267.146,202.279 269.000 M167.645 328.571 C 169.149 329.238,174.549 331.850,179.645 334.375 C 184.740 336.900,191.097 340.050,193.771 341.374 C 200.198 344.557,198.543 344.923,215.455 336.570 C 234.770 327.028,234.434 327.182,236.015 327.141 C 239.923 327.038,239.917 330.107,236.000 334.448 C 235.100 335.445,233.959 336.735,233.465 337.313 C 229.759 341.647,225.935 346.069,225.468 346.560 C 225.161 346.884,224.514 347.626,224.031 348.210 C 223.188 349.230,219.118 353.935,218.364 354.761 C 218.164 354.980,217.345 355.944,216.545 356.902 C 215.745 357.861,214.834 358.909,214.520 359.232 C 214.206 359.554,212.912 361.045,211.643 362.545 C 210.375 364.045,209.241 365.355,209.123 365.455 C 209.005 365.555,208.255 366.454,207.455 367.454 C 203.277 372.676,200.567 374.442,198.223 373.472 C 196.998 372.964,193.519 369.317,188.696 363.483 C 188.213 362.899,187.573 362.156,187.273 361.833 C 186.973 361.510,185.260 359.533,183.468 357.441 C 179.999 353.392,179.185 352.457,177.625 350.727 C 177.084 350.127,176.047 348.907,175.321 348.015 C 174.594 347.123,173.755 346.134,173.455 345.817 C 172.870 345.200,169.629 341.497,168.364 340.000 C 167.125 338.535,163.916 334.879,162.637 333.477 C 158.032 328.426,160.926 325.592,167.645 328.571 " stroke="none" fill="#fbfbfb" fill-rule="evenodd"></path><path id="path2" d="M172.364 4.608 C 162.020 5.103,157.595 5.522,149.818 6.744 C 146.718 7.231,143.445 7.636,142.545 7.644 C 141.645 7.652,139.109 7.982,136.909 8.377 C 134.709 8.772,131.518 9.262,129.818 9.466 C 126.203 9.900,118.472 11.424,110.614 13.251 C 107.551 13.963,104.672 14.545,104.216 14.545 C 103.759 14.545,99.508 15.609,94.769 16.909 C 90.030 18.209,85.922 19.273,85.640 19.273 C 85.358 19.273,82.051 20.267,78.291 21.482 C 74.531 22.697,70.823 23.847,70.051 24.038 C 68.086 24.524,57.058 29.790,53.403 31.989 C 51.732 32.994,50.251 33.817,50.114 33.817 C 49.977 33.818,48.831 34.522,47.568 35.381 C 46.306 36.241,44.291 37.538,43.091 38.263 C 41.891 38.989,40.418 40.102,39.818 40.737 C 39.218 41.371,38.025 42.378,37.167 42.973 C 36.308 43.569,34.590 45.023,33.348 46.206 C 32.107 47.388,30.966 48.357,30.813 48.359 C 30.660 48.362,30.225 48.873,29.847 49.495 C 29.468 50.118,28.202 51.649,27.034 52.899 C 23.112 57.094,17.607 64.712,15.202 69.273 C 12.797 73.834,10.517 78.657,10.044 80.182 C 9.734 81.182,8.903 83.803,8.198 86.007 C 7.492 88.211,6.684 91.647,6.402 93.643 C 6.120 95.639,5.669 98.827,5.399 100.727 C 5.012 103.458,4.909 112.605,4.909 144.364 L 4.909 184.545 5.751 189.443 C 6.214 192.137,7.055 195.492,7.620 196.898 C 8.185 198.304,8.943 200.191,9.306 201.091 C 10.601 204.304,14.555 210.127,17.949 213.818 C 20.473 216.563,26.350 221.818,26.895 221.818 C 27.056 221.818,28.293 222.574,29.643 223.499 C 31.796 224.973,43.669 230.662,45.636 231.163 C 48.379 231.861,53.383 234.152,54.428 235.189 C 56.939 237.681,56.560 239.306,52.626 242.909 C 47.446 247.654,33.818 261.550,33.818 262.087 C 33.818 262.246,33.116 263.110,32.257 264.006 C 31.398 264.903,30.001 266.618,29.154 267.818 C 24.516 274.380,21.639 278.754,19.818 282.012 C 19.218 283.085,17.878 285.433,16.839 287.229 C 15.801 289.025,14.782 291.119,14.575 291.884 C 14.369 292.648,13.965 293.607,13.678 294.016 C 12.775 295.298,10.197 301.821,9.454 304.698 C 9.063 306.214,8.396 308.355,7.972 309.455 C 3.862 320.112,4.129 332.183,8.587 337.338 C 8.964 337.774,9.721 338.704,10.269 339.405 C 11.939 341.541,17.986 346.140,21.172 347.699 C 36.589 355.237,55.832 353.847,72.235 344.010 C 73.911 343.004,75.407 342.182,75.560 342.182 C 75.879 342.182,82.435 337.859,85.603 335.560 C 90.671 331.881,93.308 331.844,95.539 335.420 C 96.050 336.239,97.549 338.542,98.871 340.538 C 100.192 342.534,101.459 344.522,101.686 344.955 C 101.914 345.389,102.978 346.816,104.050 348.126 C 105.123 349.436,106.818 351.531,107.818 352.781 C 113.625 360.043,118.984 365.125,128.979 372.847 C 131.787 375.017,140.544 380.727,141.064 380.727 C 141.247 380.727,142.767 381.505,144.442 382.455 C 149.580 385.369,159.143 389.259,164.364 390.557 C 171.922 392.437,173.510 392.812,177.386 393.632 C 186.376 395.534,206.671 396.121,215.818 394.745 C 230.853 392.482,246.379 387.476,256.107 381.753 C 257.066 381.189,258.008 380.727,258.201 380.727 C 258.393 380.727,260.185 379.664,262.182 378.364 C 264.179 377.064,265.896 376.000,265.997 376.000 C 266.099 376.000,267.632 374.855,269.405 373.455 C 271.177 372.055,272.801 370.909,273.014 370.909 C 273.227 370.909,273.700 370.533,274.065 370.073 C 274.429 369.613,275.955 368.240,277.455 367.022 C 282.718 362.748,291.465 353.563,293.636 350.031 C 294.036 349.381,295.076 348.044,295.946 347.060 C 296.817 346.077,297.847 344.700,298.235 344.000 C 298.624 343.300,299.751 341.500,300.740 340.000 C 301.730 338.500,302.881 336.587,303.299 335.750 C 305.151 332.038,308.281 331.846,312.795 335.170 C 314.036 336.083,315.668 337.175,316.422 337.597 C 317.175 338.019,318.902 339.118,320.260 340.039 C 335.217 350.196,348.417 353.785,364.182 351.984 C 380.537 350.115,394.196 338.085,394.178 325.566 C 394.171 320.028,390.478 305.089,387.452 298.355 C 387.000 297.351,386.025 295.060,385.283 293.264 C 384.542 291.469,383.731 289.755,383.480 289.455 C 383.229 289.155,382.084 287.109,380.934 284.909 C 379.785 282.709,378.410 280.336,377.878 279.636 C 377.347 278.936,376.503 277.604,376.002 276.676 C 371.937 269.144,357.442 252.554,346.685 243.123 C 340.659 237.841,341.353 235.706,350.182 232.369 C 355.926 230.197,357.991 229.337,360.810 227.939 C 362.356 227.172,363.815 226.545,364.054 226.545 C 364.292 226.545,366.219 225.458,368.335 224.128 C 370.451 222.799,372.559 221.480,373.020 221.198 C 373.772 220.737,376.462 218.468,378.909 216.229 C 380.489 214.784,384.523 210.170,385.094 209.156 C 385.396 208.620,386.143 207.445,386.754 206.545 C 390.008 201.753,392.064 196.607,393.185 190.447 C 395.346 178.572,394.223 97.393,391.782 89.091 C 391.458 87.991,390.885 85.960,390.508 84.578 C 389.752 81.812,388.556 78.706,387.064 75.636 C 386.530 74.536,385.702 72.755,385.226 71.677 C 384.749 70.600,383.542 68.519,382.543 67.053 C 381.545 65.588,380.727 64.257,380.727 64.095 C 380.727 63.453,375.547 56.725,372.674 53.636 C 371.744 52.636,370.434 51.164,369.764 50.364 C 366.137 46.034,350.731 33.818,348.898 33.818 C 348.753 33.818,346.978 32.780,344.953 31.511 C 342.929 30.241,340.657 29.000,339.903 28.753 C 339.150 28.506,337.262 27.682,335.707 26.922 C 331.793 25.009,330.086 24.356,323.818 22.374 C 317.859 20.489,316.981 20.238,306.545 17.433 C 299.373 15.505,298.145 15.214,291.273 13.813 C 289.173 13.385,285.736 12.643,283.636 12.165 C 278.679 11.036,272.704 9.903,270.182 9.613 C 269.082 9.487,266.414 9.076,264.254 8.700 C 262.094 8.324,259.067 7.915,257.527 7.791 C 255.987 7.666,252.226 7.170,249.169 6.686 C 233.269 4.173,200.176 3.278,172.364 4.608 M218.000 20.384 C 220.200 20.546,226.091 20.938,231.091 21.255 C 236.091 21.573,241.573 22.074,243.273 22.369 C 244.973 22.665,248.802 23.153,251.782 23.454 C 257.392 24.021,276.081 27.281,283.091 28.915 C 285.291 29.428,288.401 30.143,290.002 30.504 C 296.909 32.064,297.670 34.061,294.865 43.265 C 287.629 67.012,284.978 75.099,284.063 76.209 C 282.085 78.609,280.392 78.742,269.793 77.334 C 260.976 76.162,253.489 75.391,244.364 74.716 C 240.464 74.428,235.882 74.018,234.182 73.805 C 224.510 72.594,179.193 72.602,165.636 73.817 C 161.436 74.193,156.445 74.594,154.545 74.708 C 150.222 74.967,139.106 76.129,129.818 77.294 C 118.836 78.671,116.366 78.483,114.760 76.143 C 114.322 75.505,111.746 67.533,106.783 51.455 C 105.671 47.855,104.332 43.518,103.806 41.818 C 102.083 36.248,102.325 33.659,104.727 31.951 C 105.735 31.234,117.464 28.407,125.091 27.043 C 140.127 24.353,144.598 23.636,148.545 23.281 C 150.945 23.065,154.390 22.653,156.199 22.364 C 158.009 22.076,163.409 21.578,168.199 21.258 C 172.990 20.937,178.627 20.549,180.727 20.394 C 185.820 20.019,212.956 20.012,218.000 20.384 M80.989 40.515 C 82.359 41.669,83.726 44.262,84.742 47.636 C 85.194 49.136,86.288 52.655,87.174 55.455 C 88.060 58.255,89.503 63.000,90.381 66.000 C 91.259 69.000,92.388 72.600,92.890 74.000 C 95.519 81.332,94.068 82.949,82.147 85.980 C 62.193 91.053,53.742 95.046,51.170 100.616 L 50.364 102.364 50.364 143.818 L 50.364 185.273 51.386 187.354 C 53.732 192.132,61.832 196.871,77.636 202.713 C 79.636 203.452,83.236 204.791,85.636 205.688 C 98.233 210.395,125.564 217.322,136.368 218.546 C 138.263 218.761,140.893 219.161,142.213 219.437 C 156.983 222.516,196.659 224.557,217.273 223.298 C 221.073 223.065,228.109 222.650,232.909 222.374 C 237.709 222.098,241.882 221.781,242.182 221.670 C 242.482 221.559,244.773 221.223,247.273 220.925 C 249.773 220.627,254.109 219.980,256.909 219.488 C 259.709 218.997,263.757 218.340,265.903 218.029 C 282.682 215.599,310.903 207.415,328.727 199.810 C 343.284 193.599,347.620 190.467,348.726 185.361 C 349.539 181.606,349.058 103.493,348.208 101.273 C 345.838 95.085,336.060 90.535,313.455 85.099 C 304.506 82.948,303.809 81.338,307.213 70.700 C 310.946 59.034,313.131 51.982,314.248 48.000 C 316.950 38.364,318.978 37.678,329.346 42.890 C 353.787 55.175,370.648 76.854,372.749 98.693 C 373.423 105.706,373.012 186.847,372.287 189.823 C 369.523 201.169,359.334 211.145,345.394 216.154 C 343.527 216.825,340.364 218.026,338.364 218.823 C 336.364 219.620,333.756 220.551,332.569 220.893 C 331.382 221.235,328.846 222.136,326.933 222.896 C 325.020 223.656,322.309 224.614,320.909 225.026 C 319.509 225.438,315.909 226.534,312.909 227.461 C 304.060 230.196,288.251 234.173,279.636 235.832 C 277.136 236.313,272.770 237.195,269.934 237.791 C 267.097 238.387,263.497 238.976,261.934 239.101 C 260.370 239.225,257.782 239.554,256.182 239.832 C 254.582 240.109,251.473 240.512,249.273 240.727 C 247.073 240.942,243.718 241.364,241.818 241.665 C 239.918 241.967,235.341 242.371,231.646 242.564 C 227.951 242.756,223.042 243.110,220.737 243.350 C 215.105 243.935,184.324 243.931,178.000 243.344 C 175.400 243.103,170.327 242.742,166.727 242.542 C 163.127 242.342,158.055 241.859,155.455 241.467 C 149.942 240.637,143.144 239.768,138.000 239.236 C 136.000 239.029,133.300 238.617,132.000 238.321 C 130.700 238.024,125.545 236.985,120.545 236.012 C 95.432 231.123,60.565 220.150,45.750 212.472 C 35.441 207.130,27.930 197.835,26.471 188.615 C 25.779 184.242,25.789 102.944,26.482 97.455 C 27.849 86.628,34.673 72.413,42.989 63.071 C 55.143 49.416,76.501 36.739,80.989 40.515 M122.712 120.171 C 144.547 125.724,154.258 146.019,142.999 162.572 C 127.990 184.641,90.146 181.105,80.409 156.723 C 71.909 135.440,97.114 113.661,122.712 120.171 M293.676 131.756 C 313.750 137.120,324.660 154.110,313.502 162.630 C 307.043 167.561,300.374 166.385,293.261 159.061 C 284.990 150.546,278.670 150.654,270.000 159.457 C 267.370 162.128,265.760 163.443,264.182 164.210 C 257.039 167.680,247.481 163.359,245.477 155.753 C 243.537 148.389,256.240 135.404,268.560 132.155 C 277.963 129.675,285.443 129.557,293.676 131.756 M77.108 249.547 C 79.539 251.185,79.847 252.258,79.154 256.684 C 78.008 264.011,77.818 265.788,77.818 269.199 C 77.818 276.531,78.658 283.445,81.294 297.805 C 81.605 299.498,82.503 302.865,83.291 305.286 C 85.690 312.660,85.598 314.348,82.624 317.528 C 78.006 322.465,75.556 322.458,70.384 317.493 C 62.527 309.951,52.597 303.008,41.386 297.217 C 34.613 293.720,34.303 291.595,39.416 283.699 C 45.843 273.776,56.257 261.757,64.807 254.396 C 71.281 248.823,74.280 247.641,77.108 249.547 M327.886 249.687 C 335.698 253.639,353.864 273.540,361.436 286.440 C 364.423 291.529,363.649 294.137,358.364 296.801 C 348.189 301.929,337.258 309.540,329.379 316.982 C 323.702 322.345,321.982 322.540,317.201 318.358 C 313.894 315.465,313.476 312.714,315.461 306.901 C 316.911 302.652,318.485 296.131,318.914 292.590 C 319.129 290.814,319.559 288.278,319.869 286.954 C 320.679 283.500,320.650 264.020,319.831 261.091 C 318.682 256.983,318.070 253.588,318.306 252.644 C 319.185 249.143,323.921 247.681,327.886 249.687 M113.893 251.257 C 116.752 251.849,121.055 252.670,123.455 253.082 C 134.216 254.932,135.952 256.560,133.847 262.830 C 133.463 263.973,132.900 266.218,132.596 267.818 C 132.291 269.418,131.789 271.791,131.481 273.091 C 130.474 277.333,130.674 295.648,131.790 301.434 C 132.274 303.945,132.846 307.064,133.061 308.364 C 135.071 320.540,145.960 345.324,155.987 360.545 C 159.955 366.570,159.212 370.570,154.296 369.648 C 150.430 368.922,139.431 361.057,131.179 353.118 C 105.327 328.244,90.889 284.014,99.833 257.091 C 102.235 249.863,103.872 249.184,113.893 251.257 M295.278 250.854 C 300.366 253.552,303.679 271.734,301.504 285.026 C 296.287 316.917,282.117 342.403,259.712 360.193 C 248.969 368.722,243.058 371.213,241.299 367.952 C 240.328 366.153,240.795 364.709,243.767 360.323 C 245.990 357.044,248.235 353.077,253.420 343.273 C 255.946 338.497,256.294 337.746,259.235 330.727 C 261.744 324.740,265.319 313.669,266.163 309.273 C 268.633 296.397,268.547 297.235,268.520 286.364 C 268.493 275.592,267.935 270.501,266.111 264.368 C 263.802 256.608,264.533 255.445,272.727 253.843 C 274.827 253.432,279.573 252.506,283.273 251.785 C 286.973 251.064,290.068 250.409,290.152 250.328 C 290.599 249.896,294.161 250.261,295.278 250.854 M154.727 257.574 C 159.673 258.190,170.994 258.991,184.545 259.684 C 194.280 260.182,214.944 259.896,225.730 259.114 C 240.746 258.026,243.432 257.795,247.215 257.264 C 256.576 255.950,257.916 256.621,260.321 263.829 C 263.949 274.704,265.070 293.131,262.588 301.091 C 262.182 302.391,261.743 304.191,261.612 305.091 C 261.481 305.991,260.915 308.527,260.354 310.727 C 259.794 312.927,259.230 315.352,259.101 316.116 C 257.792 323.879,244.913 350.361,236.167 363.273 C 229.771 372.715,227.747 375.251,225.314 376.866 C 216.944 382.421,180.384 382.094,173.179 376.399 C 167.416 371.843,151.402 345.282,145.137 329.886 C 141.045 319.832,139.933 316.156,137.194 303.636 L 135.882 297.636 135.850 286.364 L 135.818 275.091 137.171 269.744 C 140.578 256.281,141.151 255.884,154.727 257.574 M198.000 268.697 C 196.744 269.261,195.780 270.451,188.696 280.182 C 187.095 282.382,185.424 284.653,184.983 285.229 C 183.500 287.168,179.471 292.639,177.455 295.451 C 176.355 296.985,175.175 298.595,174.833 299.029 C 174.491 299.463,172.945 301.536,171.398 303.636 C 169.851 305.736,168.370 307.672,168.108 307.937 C 167.846 308.203,167.442 308.776,167.210 309.210 C 166.850 309.884,166.120 310.889,162.792 315.294 C 159.229 320.010,159.528 321.171,164.988 323.832 C 182.463 332.349,194.378 338.034,196.281 338.763 C 200.501 340.379,200.620 340.346,213.818 333.912 C 230.618 325.722,233.638 324.263,234.886 323.735 C 240.181 321.494,240.227 319.954,235.202 313.144 C 230.757 307.120,228.554 304.189,228.329 304.000 C 228.210 303.900,227.392 302.755,226.511 301.456 C 225.630 300.157,224.664 298.834,224.364 298.516 C 224.064 298.198,223.573 297.562,223.273 297.103 C 222.715 296.248,212.754 282.732,209.551 278.484 C 208.998 277.750,207.645 275.887,206.545 274.344 C 202.554 268.742,200.671 267.498,198.000 268.697 M196.727 291.974 L 196.727 303.947 195.845 304.641 C 195.360 305.023,194.173 305.618,193.209 305.964 C 192.244 306.310,189.736 307.248,187.636 308.049 C 175.871 312.538,171.636 313.882,171.636 313.129 C 171.636 312.719,173.811 309.629,179.083 302.545 C 180.646 300.445,182.678 297.702,183.599 296.450 C 184.519 295.197,186.050 293.172,187.000 291.949 C 187.950 290.726,188.727 289.624,188.728 289.499 C 188.728 289.375,189.096 288.837,189.546 288.303 C 189.996 287.770,191.580 285.684,193.067 283.667 C 196.928 278.428,196.727 277.972,196.727 291.974 M204.599 281.199 C 205.169 281.858,205.916 282.799,206.259 283.290 C 207.228 284.678,215.967 296.471,216.535 297.158 C 216.814 297.495,217.338 298.231,217.699 298.794 C 218.353 299.815,223.395 306.669,226.411 310.637 C 228.125 312.893,228.326 313.455,227.416 313.455 C 226.700 313.455,219.105 310.830,213.455 308.630 C 211.155 307.735,208.209 306.648,206.909 306.216 C 205.609 305.783,204.136 305.090,203.636 304.674 L 202.727 303.919 202.620 292.778 C 202.489 279.061,202.532 278.811,204.599 281.199 M39.614 299.468 C 51.296 305.067,66.055 316.293,68.853 321.709 C 70.817 325.511,69.233 327.727,61.513 331.982 C 49.625 338.532,40.224 339.639,31.818 335.476 C 24.116 331.662,22.432 327.124,25.064 317.273 C 25.705 314.873,26.532 311.751,26.902 310.335 C 29.794 299.266,33.170 296.380,39.614 299.468 M366.168 298.720 C 369.338 300.360,374.589 314.942,375.169 323.720 C 375.664 331.191,369.789 336.302,358.969 337.815 C 349.861 339.089,330.470 330.598,329.626 324.967 C 328.992 320.738,336.728 313.159,350.182 304.830 C 360.701 298.317,363.396 297.287,366.168 298.720 M196.291 310.982 C 196.610 311.301,196.727 314.271,196.727 322.073 C 196.727 334.392,197.065 333.573,192.803 331.595 C 180.542 325.905,170.727 320.891,170.727 320.316 C 170.727 319.836,174.841 318.176,188.545 313.123 C 196.415 310.222,195.722 310.413,196.291 310.982 M208.545 312.273 C 210.345 312.976,213.373 314.093,215.273 314.754 C 217.173 315.416,219.545 316.276,220.545 316.665 C 221.545 317.054,223.427 317.784,224.727 318.287 C 228.162 319.616,229.091 320.076,229.091 320.447 C 229.091 320.729,217.188 326.679,207.357 331.311 C 202.232 333.725,202.545 334.356,202.545 321.633 C 202.545 308.996,202.066 309.743,208.545 312.273 M234.715 327.456 C 233.922 327.697,230.000 329.534,226.000 331.538 C 197.112 346.015,200.893 345.045,191.455 340.396 C 162.227 325.998,163.591 326.571,161.624 327.860 C 159.885 328.999,160.360 330.601,163.455 334.040 C 164.778 335.511,170.735 342.400,173.121 345.220 C 173.605 345.791,174.327 346.609,174.726 347.037 C 175.126 347.466,177.316 350.026,179.594 352.726 C 181.872 355.427,183.923 357.800,184.152 358.000 C 184.516 358.318,187.062 361.243,189.828 364.521 C 195.742 371.528,197.903 373.455,199.848 373.455 C 201.670 373.455,202.866 372.453,207.455 367.089 C 208.455 365.919,209.518 364.704,209.818 364.387 C 210.118 364.070,211.826 362.094,213.613 359.996 C 215.400 357.898,217.118 355.924,217.431 355.609 C 217.744 355.293,218.542 354.366,219.205 353.548 C 219.867 352.729,220.849 351.581,221.387 350.997 C 221.924 350.412,222.691 349.539,223.090 349.058 C 224.234 347.679,228.232 343.034,230.731 340.182 C 231.256 339.582,232.275 338.386,232.994 337.525 C 233.714 336.664,234.863 335.355,235.548 334.616 C 238.780 331.129,239.502 329.308,238.150 328.048 C 237.100 327.070,236.389 326.948,234.715 327.456 M186.077 343.442 C 191.937 346.345,196.117 348.630,196.344 349.055 C 196.881 350.058,196.859 362.421,196.320 362.754 C 195.874 363.030,195.012 362.151,190.047 356.364 C 188.246 354.264,186.598 352.363,186.386 352.139 C 185.980 351.712,185.535 351.200,182.005 347.090 C 180.802 345.690,179.409 344.069,178.909 343.488 C 178.409 342.907,177.388 341.762,176.641 340.943 C 173.411 337.406,174.443 337.679,186.077 343.442 M224.364 338.855 C 224.364 339.099,220.860 343.349,218.736 345.681 C 218.531 345.906,217.709 346.874,216.909 347.832 C 216.109 348.791,215.198 349.834,214.884 350.151 C 214.570 350.468,213.338 351.873,212.147 353.273 C 208.662 357.368,208.260 357.834,206.676 359.596 C 205.848 360.518,204.851 361.668,204.460 362.152 C 202.796 364.209,202.488 363.186,202.613 356.012 C 202.753 348.009,201.655 349.294,213.273 343.530 C 224.087 338.165,224.364 338.048,224.364 338.855 " stroke="none" fill="#3c346b" fill-rule="evenodd"></path><path id="path3" d="M193.818 282.775 C 192.718 284.299,189.364 288.859,186.364 292.907 C 183.364 296.955,180.664 300.637,180.364 301.089 C 180.064 301.542,179.536 302.259,179.190 302.683 C 177.520 304.735,171.636 312.892,171.636 313.155 C 171.636 313.722,172.749 313.450,177.186 311.796 C 190.957 306.664,195.501 304.921,195.909 304.616 C 196.418 304.234,196.597 279.999,196.091 280.002 C 195.941 280.002,194.918 281.250,193.818 282.775 M203.152 280.242 C 202.676 280.718,202.886 303.024,203.375 303.991 C 203.665 304.564,204.488 305.129,205.643 305.548 C 206.639 305.909,209.745 307.079,212.545 308.148 C 220.315 311.114,226.903 313.455,227.481 313.455 C 228.222 313.455,228.150 313.250,226.739 311.342 C 226.045 310.404,224.942 308.900,224.287 308.000 C 223.632 307.100,223.009 306.282,222.903 306.182 C 222.797 306.082,222.417 305.539,222.058 304.976 C 221.700 304.413,221.177 303.676,220.896 303.340 C 220.616 303.003,219.072 300.927,217.465 298.727 C 215.858 296.527,214.350 294.498,214.114 294.217 C 213.878 293.936,213.118 292.873,212.425 291.853 C 211.733 290.834,210.939 289.755,210.662 289.455 C 210.385 289.155,208.690 286.905,206.896 284.455 C 203.483 279.793,203.538 279.856,203.152 280.242 M191.636 312.147 C 178.357 316.877,170.545 319.905,170.545 320.321 C 170.545 320.835,194.809 332.727,195.857 332.727 C 196.279 332.727,196.364 330.906,196.364 321.818 C 196.364 309.164,196.904 310.270,191.636 312.147 M203.152 311.152 C 202.565 311.738,202.885 332.377,203.484 332.607 C 203.822 332.737,207.368 331.232,212.120 328.943 C 226.030 322.241,228.545 320.931,228.545 320.388 C 228.545 319.866,223.958 317.856,219.359 316.363 C 218.107 315.957,215.162 314.868,212.814 313.944 C 206.332 311.392,203.678 310.625,203.152 311.152 M175.273 338.804 C 175.273 339.084,176.830 341.071,178.182 342.516 C 178.482 342.837,180.199 344.816,181.997 346.913 C 183.796 349.011,186.496 352.124,187.997 353.831 C 189.499 355.538,191.545 357.901,192.545 359.084 C 193.545 360.266,194.773 361.626,195.273 362.107 L 196.182 362.980 196.281 356.164 C 196.397 348.164,196.591 348.619,192.182 346.546 C 190.582 345.794,186.476 343.787,183.057 342.086 C 176.493 338.821,175.273 338.307,175.273 338.804 M220.909 339.941 C 213.811 343.327,204.483 348.024,203.818 348.548 C 203.026 349.172,202.456 361.874,203.187 362.606 C 203.509 362.927,206.151 360.171,210.913 354.545 C 212.183 353.045,213.479 351.560,213.793 351.245 C 214.107 350.930,214.911 349.996,215.579 349.171 C 216.248 348.345,217.148 347.278,217.579 346.799 C 218.011 346.320,218.692 345.535,219.093 345.055 C 219.495 344.575,220.845 342.991,222.093 341.536 C 225.193 337.924,225.178 337.905,220.909 339.941 " stroke="none" fill="#647beb" fill-rule="evenodd"></path><path id="path4" d="M79.411 40.013 C 79.987 40.185,80.813 40.621,81.247 40.981 C 81.680 41.342,81.575 41.186,81.012 40.636 C 80.449 40.086,79.623 39.650,79.176 39.668 C 78.490 39.694,78.527 39.748,79.411 40.013 M318.150 40.465 C 317.006 41.236,315.271 43.717,315.296 44.545 C 315.302 44.745,315.714 44.126,316.213 43.168 C 317.724 40.265,320.559 39.316,324.182 40.500 C 324.582 40.631,324.418 40.498,323.818 40.204 C 322.128 39.375,319.594 39.492,318.150 40.465 M74.182 40.545 C 73.682 40.831,73.436 41.065,73.636 41.065 C 73.836 41.065,74.409 40.831,74.909 40.545 C 75.409 40.260,75.655 40.026,75.455 40.026 C 75.255 40.026,74.682 40.260,74.182 40.545 M84.419 47.273 C 84.419 47.573,84.640 48.391,84.909 49.091 C 85.179 49.791,85.399 50.118,85.399 49.818 C 85.399 49.518,85.179 48.700,84.909 48.000 C 84.640 47.300,84.419 46.973,84.419 47.273 M57.182 50.218 C 56.332 50.820,55.636 51.393,55.636 51.492 C 55.636 51.591,56.373 51.165,57.273 50.545 C 58.173 49.926,58.909 49.346,58.909 49.255 C 58.909 49.005,58.840 49.043,57.182 50.218 M341.818 50.296 C 341.818 50.386,342.419 50.917,343.153 51.477 C 343.887 52.037,344.373 52.310,344.233 52.083 C 343.945 51.617,341.818 50.043,341.818 50.296 M49.799 56.273 L 48.545 57.636 49.909 56.383 C 51.178 55.217,51.440 54.909,51.162 54.909 C 51.101 54.909,50.488 55.523,49.799 56.273 M352.364 59.455 C 354.055 61.155,355.520 62.545,355.620 62.545 C 355.720 62.545,354.418 61.155,352.727 59.455 C 351.036 57.755,349.571 56.364,349.471 56.364 C 349.371 56.364,350.672 57.755,352.364 59.455 M310.026 61.299 C 309.892 61.832,309.853 62.338,309.939 62.423 C 310.024 62.509,310.204 62.143,310.338 61.610 C 310.471 61.077,310.511 60.571,310.425 60.486 C 310.339 60.400,310.160 60.766,310.026 61.299 M89.506 64.000 C 89.506 64.300,89.646 64.873,89.818 65.273 C 90.015 65.731,90.131 65.798,90.131 65.455 C 90.131 65.155,89.990 64.582,89.818 64.182 C 89.621 63.723,89.506 63.656,89.506 64.000 M359.068 67.029 C 359.628 67.763,360.160 68.364,360.250 68.364 C 360.502 68.364,358.928 66.236,358.463 65.949 C 358.236 65.808,358.508 66.294,359.068 67.029 M305.477 76.103 C 305.234 76.971,305.103 78.244,305.186 78.932 C 305.333 80.141,305.340 80.134,305.396 78.691 C 305.428 77.870,305.637 76.676,305.860 76.036 C 306.083 75.396,306.188 74.794,306.092 74.698 C 305.997 74.603,305.720 75.235,305.477 76.103 M93.567 78.364 C 93.569 79.564,93.637 80.011,93.718 79.357 C 93.799 78.704,93.797 77.722,93.714 77.175 C 93.631 76.629,93.565 77.164,93.567 78.364 M87.455 84.364 C 86.996 84.561,86.929 84.676,87.273 84.676 C 87.573 84.676,88.145 84.536,88.545 84.364 C 89.004 84.167,89.071 84.051,88.727 84.051 C 88.427 84.051,87.855 84.192,87.455 84.364 M312.000 84.742 C 313.100 85.110,314.327 85.408,314.727 85.406 C 315.127 85.404,314.391 85.093,313.091 84.714 C 310.095 83.841,309.358 83.860,312.000 84.742 M69.705 89.157 C 68.542 89.563,67.655 89.958,67.732 90.035 C 67.898 90.201,72.364 88.732,72.364 88.512 C 72.364 88.275,71.949 88.376,69.705 89.157 M341.090 94.034 C 341.989 94.548,342.930 95.139,343.180 95.347 C 343.431 95.555,343.636 95.620,343.636 95.491 C 343.636 95.178,340.325 93.090,339.838 93.095 C 339.627 93.098,340.190 93.520,341.090 94.034 M26.637 96.909 C 26.641 97.709,26.716 97.994,26.803 97.541 C 26.890 97.089,26.886 96.434,26.795 96.087 C 26.704 95.739,26.633 96.109,26.637 96.909 M345.091 96.909 C 345.769 97.609,346.406 98.182,346.506 98.182 C 346.606 98.182,346.133 97.609,345.455 96.909 C 344.776 96.209,344.139 95.636,344.039 95.636 C 343.939 95.636,344.412 96.209,345.091 96.909 M26.313 102.182 C 26.313 104.082,26.374 104.859,26.449 103.909 C 26.524 102.959,26.524 101.405,26.449 100.455 C 26.374 99.505,26.313 100.282,26.313 102.182 M50.689 100.945 C 50.388 101.664,50.192 102.472,50.253 102.740 C 50.314 103.008,50.622 102.419,50.937 101.432 C 51.607 99.332,51.473 99.068,50.689 100.945 M372.854 103.273 C 372.854 104.973,372.917 105.668,372.994 104.818 C 373.070 103.968,373.070 102.577,372.994 101.727 C 372.917 100.877,372.854 101.573,372.854 103.273 M348.812 104.000 C 348.812 104.700,348.886 104.986,348.978 104.636 C 349.069 104.286,349.069 103.714,348.978 103.364 C 348.886 103.014,348.812 103.300,348.812 104.000 M49.994 143.455 C 49.994 165.055,50.037 173.837,50.091 162.972 C 50.144 152.107,50.144 134.434,50.091 123.699 C 50.037 112.965,49.994 121.855,49.994 143.455 M349.266 145.091 C 349.266 166.591,349.310 175.386,349.364 164.636 C 349.417 153.886,349.417 136.295,349.364 125.545 C 349.310 114.795,349.266 123.591,349.266 145.091 M25.905 145.160 C 25.857 166.499,25.941 184.033,26.091 184.126 C 26.338 184.278,26.336 157.200,26.086 120.364 C 26.034 112.664,25.952 123.822,25.905 145.160 M372.902 146.000 C 372.902 166.800,372.946 175.256,373.000 164.790 C 373.054 154.325,373.054 137.307,373.000 126.972 C 372.946 116.637,372.902 125.200,372.902 146.000 M79.036 148.000 C 79.036 149.700,79.099 150.395,79.175 149.545 C 79.252 148.695,79.252 147.305,79.175 146.455 C 79.099 145.605,79.036 146.300,79.036 148.000 M50.206 184.929 C 50.165 186.180,51.895 189.207,53.523 190.736 L 55.062 192.182 53.572 190.507 C 51.871 188.595,51.334 187.688,50.688 185.636 C 50.428 184.809,50.220 184.504,50.206 184.929 M26.281 186.182 C 26.281 187.082,26.352 187.450,26.438 187.000 C 26.525 186.550,26.525 185.814,26.438 185.364 C 26.352 184.914,26.281 185.282,26.281 186.182 M339.545 194.753 C 338.186 195.491,338.269 195.798,339.636 195.091 C 340.236 194.781,340.727 194.449,340.727 194.354 C 340.727 194.120,340.688 194.133,339.545 194.753 M328.727 199.818 C 328.227 200.104,327.982 200.338,328.182 200.338 C 328.382 200.338,328.955 200.104,329.455 199.818 C 329.955 199.532,330.200 199.298,330.000 199.298 C 329.800 199.298,329.227 199.532,328.727 199.818 M363.443 204.818 L 361.273 207.091 363.545 204.920 C 364.795 203.727,365.818 202.704,365.818 202.648 C 365.818 202.379,365.459 202.707,363.443 204.818 M35.621 205.182 C 36.513 206.132,37.290 206.909,37.348 206.909 C 37.621 206.909,37.333 206.583,35.727 205.076 L 34.000 203.455 35.621 205.182 M81.818 204.545 C 82.318 204.831,82.973 205.065,83.273 205.064 C 83.573 205.063,83.268 204.823,82.595 204.531 C 81.046 203.859,80.631 203.867,81.818 204.545 M302.545 209.273 C 301.245 209.741,300.354 210.138,300.566 210.153 C 300.777 210.169,302.086 209.785,303.475 209.300 C 304.864 208.815,305.755 208.418,305.455 208.419 C 305.155 208.420,303.845 208.804,302.545 209.273 M96.182 209.455 C 96.582 209.626,97.155 209.767,97.455 209.767 C 97.798 209.767,97.731 209.652,97.273 209.455 C 96.873 209.283,96.300 209.142,96.000 209.142 C 95.656 209.142,95.723 209.258,96.182 209.455 M284.364 214.210 C 283.064 214.587,282.584 214.815,283.299 214.716 C 284.806 214.508,288.081 213.527,287.273 213.526 C 286.973 213.525,285.664 213.833,284.364 214.210 M348.727 214.545 C 348.027 214.929,347.618 215.242,347.818 215.242 C 348.018 215.242,348.755 214.929,349.455 214.545 C 350.155 214.162,350.564 213.849,350.364 213.849 C 350.164 213.849,349.427 214.162,348.727 214.545 M116.364 214.909 C 116.864 215.069,117.600 215.200,118.000 215.200 C 118.576 215.200,118.538 215.140,117.818 214.909 C 117.318 214.749,116.582 214.618,116.182 214.618 C 115.606 214.618,115.644 214.679,116.364 214.909 M135.909 218.802 C 136.359 218.889,137.095 218.889,137.545 218.802 C 137.995 218.715,137.627 218.644,136.727 218.644 C 135.827 218.644,135.459 218.715,135.909 218.802 M261.364 218.802 C 261.814 218.889,262.550 218.889,263.000 218.802 C 263.450 218.715,263.082 218.644,262.182 218.644 C 261.282 218.644,260.914 218.715,261.364 218.802 M62.000 219.413 C 62.600 219.687,63.500 220.010,64.000 220.133 C 64.730 220.312,64.694 220.258,63.818 219.859 C 63.218 219.586,62.318 219.262,61.818 219.140 C 61.088 218.960,61.124 219.014,62.000 219.413 M257.636 219.273 C 256.663 219.520,256.644 219.550,257.455 219.550 C 257.955 219.550,258.855 219.425,259.455 219.273 C 260.428 219.025,260.447 218.995,259.636 218.995 C 259.136 218.995,258.236 219.120,257.636 219.273 M335.091 219.831 C 334.182 220.269,334.151 220.319,334.909 220.134 C 335.939 219.882,337.098 219.292,336.545 219.300 C 336.345 219.303,335.691 219.542,335.091 219.831 M164.818 222.432 C 165.168 222.524,165.741 222.524,166.091 222.432 C 166.441 222.341,166.155 222.266,165.455 222.266 C 164.755 222.266,164.468 222.341,164.818 222.432 M170.091 222.802 C 170.541 222.889,171.277 222.889,171.727 222.802 C 172.177 222.715,171.809 222.644,170.909 222.644 C 170.009 222.644,169.641 222.715,170.091 222.802 M226.641 222.806 C 227.194 222.890,228.012 222.888,228.460 222.801 C 228.907 222.715,228.455 222.647,227.455 222.649 C 226.455 222.652,226.089 222.723,226.641 222.806 M174.636 223.170 C 175.186 223.253,176.086 223.253,176.636 223.170 C 177.186 223.086,176.736 223.018,175.636 223.018 C 174.536 223.018,174.086 223.086,174.636 223.170 M222.091 223.166 C 222.541 223.252,223.277 223.252,223.727 223.166 C 224.177 223.079,223.809 223.008,222.909 223.008 C 222.009 223.008,221.641 223.079,222.091 223.166 M180.104 223.542 C 181.261 223.614,183.061 223.614,184.104 223.540 C 185.147 223.467,184.200 223.408,182.000 223.409 C 179.800 223.410,178.947 223.469,180.104 223.542 M216.102 223.540 C 217.058 223.616,218.531 223.615,219.375 223.538 C 220.219 223.462,219.436 223.401,217.636 223.402 C 215.836 223.403,215.146 223.465,216.102 223.540 M323.091 224.031 C 322.091 224.417,321.746 224.641,322.323 224.529 C 323.467 224.306,325.863 223.333,325.273 223.331 C 325.073 223.330,324.091 223.645,323.091 224.031 M193.569 223.909 C 197.332 223.968,203.387 223.968,207.024 223.908 C 210.661 223.849,207.582 223.801,200.182 223.801 C 192.782 223.801,189.806 223.850,193.569 223.909 M76.727 224.545 C 77.427 224.815,78.245 225.036,78.545 225.036 C 78.845 225.036,78.518 224.815,77.818 224.545 C 77.118 224.276,76.300 224.055,76.000 224.055 C 75.700 224.055,76.027 224.276,76.727 224.545 M90.364 228.727 C 90.764 228.899,91.336 229.040,91.636 229.040 C 91.980 229.040,91.913 228.924,91.455 228.727 C 91.055 228.555,90.482 228.415,90.182 228.415 C 89.838 228.415,89.905 228.530,90.364 228.727 M306.364 229.091 C 305.905 229.288,305.838 229.403,306.182 229.403 C 306.482 229.403,307.055 229.263,307.455 229.091 C 307.913 228.894,307.980 228.778,307.636 228.778 C 307.336 228.778,306.764 228.919,306.364 229.091 M92.909 229.455 C 93.309 229.626,93.882 229.767,94.182 229.767 C 94.526 229.767,94.458 229.652,94.000 229.455 C 93.600 229.283,93.027 229.142,92.727 229.142 C 92.383 229.142,92.451 229.258,92.909 229.455 M303.818 229.818 C 303.360 230.015,303.293 230.131,303.636 230.131 C 303.936 230.131,304.509 229.990,304.909 229.818 C 305.368 229.621,305.435 229.506,305.091 229.506 C 304.791 229.506,304.218 229.646,303.818 229.818 M289.455 233.455 C 288.724 233.689,288.688 233.748,289.273 233.756 C 289.673 233.762,290.327 233.626,290.727 233.455 C 291.654 233.056,290.698 233.056,289.455 233.455 M282.909 234.909 C 282.189 235.140,282.151 235.200,282.727 235.200 C 283.127 235.200,283.864 235.069,284.364 234.909 C 285.083 234.679,285.121 234.618,284.545 234.618 C 284.145 234.618,283.409 234.749,282.909 234.909 M134.273 238.796 C 134.623 238.888,135.195 238.888,135.545 238.796 C 135.895 238.705,135.609 238.630,134.909 238.630 C 134.209 238.630,133.923 238.705,134.273 238.796 M263.727 238.796 C 264.077 238.888,264.650 238.888,265.000 238.796 C 265.350 238.705,265.064 238.630,264.364 238.630 C 263.664 238.630,263.377 238.705,263.727 238.796 M136.758 239.041 C 136.841 239.113,138.136 239.257,139.636 239.361 C 141.175 239.467,141.967 239.426,141.455 239.266 C 140.553 238.984,136.467 238.788,136.758 239.041 M259.552 239.173 C 260.206 239.254,261.187 239.252,261.734 239.169 C 262.280 239.086,261.745 239.020,260.545 239.022 C 259.345 239.024,258.898 239.092,259.552 239.173 M164.096 242.443 C 164.649 242.526,165.467 242.524,165.914 242.438 C 166.361 242.351,165.909 242.283,164.909 242.286 C 163.909 242.289,163.543 242.359,164.096 242.443 M233.550 242.443 C 234.103 242.526,234.921 242.524,235.369 242.438 C 235.816 242.351,235.364 242.283,234.364 242.286 C 233.364 242.289,232.998 242.359,233.550 242.443 M171.182 242.802 C 171.632 242.889,172.368 242.889,172.818 242.802 C 173.268 242.715,172.900 242.644,172.000 242.644 C 171.100 242.644,170.732 242.715,171.182 242.802 M225.727 242.802 C 226.177 242.889,226.914 242.889,227.364 242.802 C 227.814 242.715,227.445 242.644,226.545 242.644 C 225.645 242.644,225.277 242.715,225.727 242.802 M176.091 243.170 C 176.641 243.253,177.541 243.253,178.091 243.170 C 178.641 243.086,178.191 243.018,177.091 243.018 C 175.991 243.018,175.541 243.086,176.091 243.170 M220.455 243.170 C 221.005 243.253,221.905 243.253,222.455 243.170 C 223.005 243.086,222.555 243.018,221.455 243.018 C 220.355 243.018,219.905 243.086,220.455 243.170 M181.922 243.542 C 183.080 243.614,184.880 243.614,185.922 243.540 C 186.965 243.467,186.018 243.408,183.818 243.409 C 181.618 243.410,180.765 243.469,181.922 243.542 M213.739 243.541 C 214.796 243.615,216.433 243.614,217.376 243.540 C 218.319 243.465,217.455 243.405,215.455 243.406 C 213.455 243.406,212.683 243.468,213.739 243.541 M194.295 243.909 C 197.458 243.969,202.531 243.969,205.568 243.908 C 208.606 243.847,206.018 243.798,199.818 243.798 C 193.618 243.798,191.133 243.848,194.295 243.909 M73.550 248.988 C 74.103 249.072,74.921 249.070,75.369 248.983 C 75.816 248.897,75.364 248.829,74.364 248.831 C 73.364 248.834,72.998 248.905,73.550 248.988 M323.364 248.988 C 323.914 249.071,324.814 249.071,325.364 248.988 C 325.914 248.904,325.464 248.836,324.364 248.836 C 323.264 248.836,322.814 248.904,323.364 248.988 M79.166 253.110 C 79.280 253.999,79.432 254.795,79.505 254.879 C 79.801 255.220,79.600 252.505,79.292 252.019 C 79.077 251.678,79.032 252.063,79.166 253.110 M336.727 256.909 C 337.814 258.009,338.784 258.909,338.884 258.909 C 338.984 258.909,338.177 258.009,337.091 256.909 C 336.005 255.809,335.034 254.909,334.934 254.909 C 334.834 254.909,335.641 255.809,336.727 256.909 M59.083 259.727 L 55.818 263.091 59.182 259.826 C 62.306 256.793,62.711 256.364,62.447 256.364 C 62.393 256.364,60.879 257.877,59.083 259.727 M143.364 257.102 C 142.914 257.283,142.545 257.528,142.545 257.646 C 142.545 257.764,142.750 257.732,143.000 257.575 C 143.250 257.418,144.845 257.188,146.545 257.066 L 149.636 256.842 146.909 256.808 C 145.409 256.789,143.814 256.921,143.364 257.102 M250.459 256.984 C 250.911 257.071,251.566 257.068,251.913 256.977 C 252.261 256.886,251.891 256.815,251.091 256.819 C 250.291 256.823,250.006 256.897,250.459 256.984 M254.860 257.091 C 255.533 257.250,256.597 257.755,257.224 258.214 C 257.980 258.768,258.189 258.833,257.845 258.409 C 257.127 257.526,255.475 256.720,254.473 256.764 C 253.861 256.792,253.966 256.879,254.860 257.091 M247.727 257.342 C 248.077 257.433,248.650 257.433,249.000 257.342 C 249.350 257.250,249.064 257.175,248.364 257.175 C 247.664 257.175,247.377 257.250,247.727 257.342 M244.818 257.705 C 245.168 257.797,245.741 257.797,246.091 257.705 C 246.441 257.614,246.155 257.539,245.455 257.539 C 244.755 257.539,244.468 257.614,244.818 257.705 M155.550 258.075 C 156.002 258.162,156.657 258.159,157.004 258.068 C 157.352 257.977,156.982 257.906,156.182 257.910 C 155.382 257.914,155.097 257.988,155.550 258.075 M241.732 258.075 C 242.184 258.162,242.838 258.159,243.186 258.068 C 243.534 257.977,243.164 257.906,242.364 257.910 C 241.564 257.914,241.279 257.988,241.732 258.075 M160.273 258.445 C 160.923 258.526,161.986 258.526,162.636 258.445 C 163.286 258.364,162.755 258.298,161.455 258.298 C 160.155 258.298,159.623 258.364,160.273 258.445 M236.628 258.444 C 237.274 258.525,238.419 258.526,239.174 258.447 C 239.928 258.368,239.400 258.303,238.000 258.301 C 236.600 258.300,235.983 258.364,236.628 258.444 M226.095 259.166 C 226.547 259.253,227.202 259.250,227.550 259.159 C 227.897 259.068,227.527 258.997,226.727 259.001 C 225.927 259.005,225.643 259.079,226.095 259.166 M340.274 260.182 C 340.893 260.982,342.595 262.782,344.056 264.182 C 346.530 266.553,346.490 266.491,343.463 263.273 C 339.062 258.592,338.989 258.522,340.274 260.182 M178.273 259.523 C 178.623 259.615,179.195 259.615,179.545 259.523 C 179.895 259.432,179.609 259.357,178.909 259.357 C 178.209 259.357,177.923 259.432,178.273 259.523 M185.909 259.887 C 186.259 259.978,186.832 259.978,187.182 259.887 C 187.532 259.796,187.245 259.721,186.545 259.721 C 185.845 259.721,185.559 259.796,185.909 259.887 M213.368 259.894 C 213.820 259.981,214.475 259.977,214.822 259.886 C 215.170 259.795,214.800 259.724,214.000 259.728 C 213.200 259.732,212.916 259.807,213.368 259.894 M320.508 268.000 C 320.508 270.900,320.565 272.086,320.634 270.636 C 320.703 269.186,320.703 266.814,320.634 265.364 C 320.565 263.914,320.508 265.100,320.508 268.000 M53.455 265.636 C 52.571 266.536,51.930 267.273,52.030 267.273 C 52.130 267.273,52.935 266.536,53.818 265.636 C 54.701 264.736,55.342 264.000,55.242 264.000 C 55.142 264.000,54.338 264.736,53.455 265.636 M198.307 268.278 C 198.077 268.425,198.756 268.545,199.818 268.545 C 200.880 268.545,201.560 268.425,201.329 268.278 C 201.098 268.131,200.418 268.011,199.818 268.011 C 199.218 268.011,198.538 268.131,198.307 268.278 M136.429 272.894 C 136.193 274.069,136.015 275.371,136.034 275.788 C 136.053 276.205,136.297 275.400,136.576 274.000 C 136.856 272.600,137.034 271.298,136.971 271.106 C 136.909 270.914,136.665 271.718,136.429 272.894 M206.909 274.909 C 207.336 275.509,207.768 276.000,207.868 276.000 C 207.968 276.000,207.700 275.509,207.273 274.909 C 206.845 274.309,206.414 273.818,206.314 273.818 C 206.214 273.818,206.482 274.309,206.909 274.909 M77.903 275.636 C 77.903 276.336,77.977 276.623,78.069 276.273 C 78.160 275.923,78.160 275.350,78.069 275.000 C 77.977 274.650,77.903 274.936,77.903 275.636 M262.993 275.636 C 262.993 276.336,263.068 276.623,263.160 276.273 C 263.251 275.923,263.251 275.350,263.160 275.000 C 263.068 274.650,262.993 274.936,262.993 275.636 M208.844 277.455 C 209.189 277.955,209.794 278.855,210.189 279.455 C 210.583 280.055,210.907 280.363,210.908 280.141 C 210.908 279.918,210.404 279.100,209.787 278.323 C 208.438 276.624,207.979 276.202,208.844 277.455 M320.502 280.909 C 320.503 283.309,320.562 284.244,320.633 282.986 C 320.704 281.728,320.704 279.764,320.632 278.622 C 320.560 277.480,320.502 278.509,320.502 280.909 M263.412 281.273 C 263.412 283.673,263.471 284.607,263.542 283.349 C 263.614 282.092,263.613 280.128,263.541 278.986 C 263.469 277.844,263.411 278.873,263.412 281.273 M189.091 279.273 C 188.664 279.873,188.396 280.364,188.496 280.364 C 188.596 280.364,189.027 279.873,189.455 279.273 C 189.882 278.673,190.150 278.182,190.050 278.182 C 189.950 278.182,189.518 278.673,189.091 279.273 M196.527 292.000 C 196.527 298.700,196.576 301.441,196.636 298.091 C 196.696 294.741,196.696 289.259,196.636 285.909 C 196.576 282.559,196.527 285.300,196.527 292.000 M202.643 291.818 C 202.618 298.018,202.708 303.373,202.844 303.717 C 203.072 304.294,203.036 288.929,202.795 283.091 C 202.737 281.691,202.669 285.618,202.643 291.818 M185.968 283.464 C 185.430 284.170,185.053 284.806,185.131 284.879 C 185.209 284.951,185.721 284.374,186.269 283.596 C 187.513 281.831,187.289 281.733,185.968 283.464 M358.862 282.727 C 359.059 283.127,359.486 283.782,359.812 284.182 L 360.404 284.909 360.047 284.182 C 359.850 283.782,359.423 283.127,359.097 282.727 L 358.505 282.000 358.862 282.727 M213.661 284.182 C 214.909 285.818,215.153 285.821,214.094 284.186 C 213.642 283.489,213.142 282.916,212.981 282.914 C 212.821 282.911,213.127 283.482,213.661 284.182 M79.359 288.000 C 79.359 288.500,79.484 289.400,79.636 290.000 C 79.884 290.973,79.914 290.993,79.914 290.182 C 79.914 289.682,79.789 288.782,79.636 288.182 C 79.389 287.209,79.359 287.189,79.359 288.000 M216.886 288.483 C 217.446 289.217,217.978 289.818,218.068 289.818 C 218.321 289.818,216.746 287.691,216.281 287.403 C 216.054 287.263,216.326 287.749,216.886 288.483 M319.455 288.727 C 319.315 289.554,319.277 290.307,319.370 290.400 C 319.463 290.494,319.649 289.888,319.782 289.055 C 319.915 288.221,319.953 287.468,319.866 287.381 C 319.780 287.295,319.594 287.900,319.455 288.727 M263.745 289.818 C 263.745 290.918,263.814 291.368,263.897 290.818 C 263.980 290.268,263.980 289.368,263.897 288.818 C 263.814 288.268,263.745 288.718,263.745 289.818 M36.227 288.923 C 36.102 289.248,36.014 289.787,36.031 290.121 C 36.048 290.454,36.207 290.245,36.383 289.655 C 36.726 288.507,36.604 287.939,36.227 288.923 M363.001 291.091 C 363.005 291.891,363.079 292.175,363.166 291.723 C 363.253 291.271,363.250 290.616,363.159 290.268 C 363.068 289.921,362.997 290.291,363.001 291.091 M80.448 294.545 C 80.448 295.245,80.523 295.532,80.614 295.182 C 80.706 294.832,80.706 294.259,80.614 293.909 C 80.523 293.559,80.448 293.845,80.448 294.545 M263.377 295.818 C 263.379 296.818,263.450 297.184,263.534 296.631 C 263.617 296.079,263.615 295.260,263.529 294.813 C 263.442 294.366,263.374 294.818,263.377 295.818 M176.169 296.744 C 175.428 297.754,174.883 298.636,174.956 298.704 C 175.030 298.773,175.711 297.947,176.470 296.869 C 178.214 294.390,177.971 294.290,176.169 296.744 M38.909 295.803 C 38.909 295.903,39.564 296.319,40.364 296.727 C 41.164 297.135,41.818 297.388,41.818 297.288 C 41.818 297.188,41.164 296.772,40.364 296.364 C 39.564 295.956,38.909 295.703,38.909 295.803 M262.601 299.692 C 262.364 300.721,262.236 301.630,262.316 301.710 C 262.397 301.791,262.664 301.022,262.909 300.000 C 263.154 298.978,263.282 298.070,263.194 297.982 C 263.106 297.893,262.839 298.663,262.601 299.692 M172.618 301.545 C 171.631 302.880,170.966 304.029,171.512 303.455 C 172.187 302.746,173.852 300.364,173.673 300.364 C 173.573 300.364,173.098 300.895,172.618 301.545 M227.141 302.364 C 227.697 303.164,228.200 303.886,228.258 303.970 C 228.316 304.053,228.364 303.965,228.364 303.774 C 228.364 303.583,227.861 302.861,227.246 302.168 L 226.129 300.909 227.141 302.364 M342.636 305.854 C 341.786 306.456,341.091 307.030,341.091 307.128 C 341.091 307.227,341.827 306.801,342.727 306.182 C 343.627 305.563,344.364 304.982,344.364 304.892 C 344.364 304.641,344.295 304.680,342.636 305.854 M230.341 306.665 C 230.901 307.399,231.433 308.000,231.522 308.000 C 231.775 308.000,230.201 305.873,229.735 305.585 C 229.508 305.445,229.781 305.931,230.341 306.665 M315.169 307.721 C 314.826 308.810,314.554 309.931,314.565 310.214 C 314.576 310.496,314.900 309.745,315.287 308.545 C 315.673 307.345,315.945 306.224,315.891 306.053 C 315.837 305.882,315.512 306.633,315.169 307.721 M165.851 310.818 C 164.956 312.126,164.902 312.280,165.625 311.455 C 166.588 310.357,167.412 309.091,167.165 309.091 C 167.092 309.091,166.501 309.868,165.851 310.818 M336.151 310.754 L 334.727 312.053 336.273 310.875 C 337.685 309.798,338.029 309.455,337.697 309.455 C 337.630 309.455,336.935 310.039,336.151 310.754 M84.783 312.000 C 84.747 312.700,84.633 313.682,84.530 314.182 L 84.343 315.091 84.734 314.194 C 84.949 313.701,85.063 312.719,84.987 312.013 L 84.850 310.727 84.783 312.000 M314.286 312.545 C 314.289 313.545,314.359 313.911,314.443 313.359 C 314.526 312.806,314.524 311.988,314.438 311.540 C 314.351 311.093,314.283 311.545,314.286 312.545 M196.525 322.000 C 196.525 328.000,196.574 330.506,196.635 327.568 C 196.697 324.630,196.697 319.721,196.636 316.659 C 196.575 313.596,196.525 316.000,196.525 322.000 M202.706 321.818 C 202.706 327.518,202.756 329.850,202.817 327.000 C 202.879 324.150,202.879 319.486,202.817 316.636 C 202.756 313.786,202.706 316.118,202.706 321.818 M316.364 317.636 C 317.042 318.336,317.679 318.909,317.779 318.909 C 317.879 318.909,317.406 318.336,316.727 317.636 C 316.049 316.936,315.412 316.364,315.312 316.364 C 315.212 316.364,315.685 316.936,316.364 317.636 M328.000 318.000 C 327.117 318.900,326.476 319.636,326.576 319.636 C 326.676 319.636,327.480 318.900,328.364 318.000 C 329.247 317.100,329.888 316.364,329.788 316.364 C 329.688 316.364,328.883 317.100,328.000 318.000 M258.255 318.073 C 258.028 318.812,257.902 319.478,257.976 319.551 C 258.049 319.625,258.306 319.090,258.545 318.364 C 258.785 317.637,258.911 316.971,258.824 316.885 C 258.738 316.799,258.482 317.333,258.255 318.073 M141.135 319.273 C 141.129 319.573,141.348 320.309,141.623 320.909 C 142.266 322.313,142.276 321.660,141.636 320.000 C 141.367 319.300,141.141 318.973,141.135 319.273 M324.978 320.405 C 324.616 320.616,323.552 320.798,322.615 320.809 C 321.345 320.825,321.141 320.894,321.818 321.076 C 322.862 321.358,324.995 320.969,325.572 320.392 C 326.062 319.902,325.834 319.907,324.978 320.405 M77.142 320.781 C 76.470 320.974,75.988 321.200,76.071 321.284 C 76.255 321.467,78.909 320.761,78.909 320.528 C 78.909 320.314,78.620 320.355,77.142 320.781 M166.545 324.909 C 167.445 325.391,168.345 325.785,168.545 325.785 C 168.745 325.785,168.173 325.391,167.273 324.909 C 166.373 324.427,165.473 324.033,165.273 324.033 C 165.073 324.033,165.645 324.427,166.545 324.909 M231.818 325.116 C 231.218 325.500,230.891 325.814,231.091 325.814 C 231.291 325.814,231.945 325.488,232.545 325.091 C 233.145 324.694,233.473 324.379,233.273 324.393 C 233.073 324.406,232.418 324.731,231.818 325.116 M176.364 329.636 C 177.264 330.118,178.164 330.513,178.364 330.513 C 178.564 330.513,177.991 330.118,177.091 329.636 C 176.191 329.154,175.291 328.760,175.091 328.760 C 174.891 328.760,175.464 329.154,176.364 329.636 M170.545 330.182 C 171.245 330.565,171.982 330.879,172.182 330.879 C 172.382 330.879,171.973 330.565,171.273 330.182 C 170.573 329.799,169.836 329.485,169.636 329.485 C 169.436 329.485,169.845 329.799,170.545 330.182 M237.995 331.545 C 237.646 332.095,236.932 333.036,236.407 333.636 L 235.455 334.727 236.548 333.744 C 237.555 332.838,239.162 330.545,238.790 330.545 C 238.701 330.545,238.344 330.995,237.995 331.545 M253.150 331.470 C 252.541 332.807,252.657 333.093,253.316 331.877 C 253.623 331.309,253.807 330.777,253.724 330.694 C 253.641 330.610,253.382 330.960,253.150 331.470 M186.545 334.360 C 186.545 334.609,188.772 335.713,188.938 335.547 C 189.017 335.468,188.511 335.131,187.814 334.798 C 187.116 334.466,186.545 334.269,186.545 334.360 M233.727 336.559 C 232.819 337.773,232.937 338.112,233.860 336.939 C 234.282 336.401,234.569 335.905,234.496 335.835 C 234.423 335.765,234.077 336.091,233.727 336.559 M209.091 339.636 C 207.991 340.217,207.219 340.701,207.376 340.710 C 207.762 340.733,211.273 338.942,211.273 338.721 C 211.273 338.478,211.323 338.457,209.091 339.636 M197.273 339.442 C 198.429 339.999,201.351 340.170,202.057 339.722 C 202.288 339.575,201.470 339.455,200.239 339.455 C 199.007 339.455,197.591 339.333,197.091 339.185 C 196.403 338.982,196.448 339.044,197.273 339.442 M150.909 342.545 C 151.317 343.345,151.733 344.000,151.833 344.000 C 151.933 344.000,151.681 343.345,151.273 342.545 C 150.865 341.745,150.449 341.091,150.349 341.091 C 150.249 341.091,150.501 341.745,150.909 342.545 M227.297 344.097 C 226.261 345.374,226.220 345.481,227.057 344.727 C 227.927 343.944,228.960 342.532,228.649 342.552 C 228.592 342.556,227.984 343.251,227.297 344.097 M174.909 347.360 C 174.909 347.474,175.482 348.253,176.182 349.091 C 176.882 349.929,177.448 350.476,177.439 350.307 C 177.422 349.962,174.909 347.034,174.909 347.360 M196.515 356.000 C 196.515 359.700,196.569 361.214,196.635 359.364 C 196.701 357.514,196.701 354.486,196.635 352.636 C 196.569 350.786,196.515 352.300,196.515 356.000 M155.663 351.091 C 156.112 351.891,156.636 352.709,156.827 352.909 C 157.372 353.480,156.126 351.176,155.451 350.364 C 155.119 349.964,155.214 350.291,155.663 351.091 M243.273 351.273 C 242.865 352.073,242.612 352.727,242.712 352.727 C 242.812 352.727,243.228 352.073,243.636 351.273 C 244.044 350.473,244.297 349.818,244.197 349.818 C 244.097 349.818,243.681 350.473,243.273 351.273 M202.616 356.251 C 202.577 359.689,202.668 362.579,202.818 362.672 C 202.968 362.765,203.048 360.934,202.996 358.603 C 202.820 350.782,202.686 349.953,202.616 356.251 M185.663 360.034 C 186.248 360.753,186.801 361.280,186.890 361.205 C 186.980 361.129,186.501 360.541,185.826 359.897 L 184.598 358.727 185.663 360.034 M206.570 368.097 C 205.534 369.374,205.493 369.481,206.330 368.727 C 207.200 367.944,208.233 366.532,207.922 366.552 C 207.865 366.556,207.256 367.251,206.570 368.097 M191.636 367.023 C 191.636 367.085,192.168 367.617,192.818 368.205 L 194.000 369.273 192.932 368.091 C 191.936 366.989,191.636 366.742,191.636 367.023 M195.818 371.591 C 197.174 373.084,198.566 373.831,199.891 373.776 C 200.607 373.746,200.693 373.688,200.182 373.580 C 199.782 373.495,199.082 373.347,198.627 373.249 C 198.172 373.152,197.109 372.469,196.264 371.731 C 194.786 370.441,194.769 370.436,195.818 371.591 M171.636 375.091 C 172.315 375.791,172.952 376.364,173.052 376.364 C 173.152 376.364,172.678 375.791,172.000 375.091 C 171.322 374.391,170.685 373.818,170.585 373.818 C 170.485 373.818,170.958 374.391,171.636 375.091 M177.273 378.545 C 177.673 378.717,178.245 378.858,178.545 378.858 C 178.889 378.858,178.822 378.742,178.364 378.545 C 177.964 378.374,177.391 378.233,177.091 378.233 C 176.747 378.233,176.814 378.348,177.273 378.545 M220.909 378.545 C 220.451 378.742,220.383 378.858,220.727 378.858 C 221.027 378.858,221.600 378.717,222.000 378.545 C 222.458 378.348,222.526 378.233,222.182 378.233 C 221.882 378.233,221.309 378.374,220.909 378.545 " stroke="none" fill="#7978aa" fill-rule="evenodd"></path></g></svg>